<svg xmlns="http://www.w3.org/2000/svg" width="76" height="18" fill="none" viewBox="0 0 76 18"><path stroke="#3F0000" stroke-linecap="round" stroke-opacity=".5" d="M51 4h24" class="strokePath"/><path fill="#3F0000" fill-opacity=".5" fill-rule="evenodd" d="m34.643 8.86.019-.005-.013.013-.014.014.008-.022Zm2.07-3.85c-.717-1.031-2.127-1.766-3.445-1.962-1.348-.2-2.712.259-3.881.853-.917.466-1.775 1.019-2.632 1.572a59.9 59.9 0 0 1-1.284.812c-1.236.753-2.595 1.454-4.106 1.512-.171.006-.329.092-.332.21-.078.101-.01.268.128.364 1.038.732 2.525.73 3.756.385 1.271-.357 1.97-1.477 2.598-2.487.057.589.217 1.16.744 1.553.229.172.968.48.454-.303-.538-.82.223-1.898.862-2.601.763-.84 2.021-1.224 3.165-1.358a.303.303 0 0 0 .085-.023c.114.005.228.014.342.027 2.177.264 3.536 1.906 3.82 3.76.221 1.445-.026 3.464-1.543 4.335-.668.384-1.527.311-2.228.098a2.242 2.242 0 0 1-.299-.115c.022-.104-.027-.172-.144-.28-.32-.295-.405-.848-.285-1.33.59.24 1.405.1 1.997-.157.794-.344 1.35-1.232.965-1.862a.425.425 0 0 0-.065-.127.289.289 0 0 0-.163-.193c-1.688-.828-3.37.202-3.802 1.793-.481 1.777 1.114 2.967 2.951 2.967 1.74 0 2.736-1.458 3.087-2.824.112-.434.173-.89.183-1.348.01.459.072.914.184 1.348.35 1.366 1.348 2.824 3.084 2.824 1.84 0 3.435-1.19 2.952-2.967-.433-1.59-2.115-2.62-3.8-1.793a.3.3 0 0 0-.165.193.495.495 0 0 0-.063.127c-.386.63.171 1.518.962 1.862.595.258 1.41.398 1.997.158.123.48.038 1.034-.282 1.328-.12.109-.166.177-.147.281-.092.044-.19.083-.296.115-.701.213-1.56.286-2.228-.098-1.517-.871-1.764-2.89-1.544-4.335.283-1.854 1.644-3.496 3.82-3.76.115-.013.23-.022.34-.027.028.01.055.02.087.023 1.145.134 2.403.518 3.166 1.358.639.703 1.4 1.781.862 2.601-.517.783.225.475.454.303.527-.393.684-.964.744-1.553.625 1.01 1.326 2.13 2.598 2.487 1.228.345 2.718.347 3.756-.385.138-.096.204-.263.128-.364-.006-.118-.16-.204-.332-.21-1.51-.058-2.872-.759-4.109-1.512-.434-.265-.861-.54-1.288-.816-.855-.551-1.71-1.103-2.625-1.568-1.171-.594-2.535-1.054-3.88-.853-1.319.196-2.73.93-3.447 1.962-.603.867-.905 1.937-.928 3.001-.024-1.064-.325-2.134-.927-3Zm.085-.764.889-.843.853.843c-.16.214-.853 1.451-.853 1.451s-.729-1.237-.89-1.451Zm-.356 10.745 1.198-2.538 1.196 2.538-.008.01c-.487.655-1.144 2.439-1.144 2.439l-.044.16-.046-.16S36.94 15.656 36.45 15l-.008-.01Zm4.18-6.136c.008.01.016.018.026.027l-.008-.022a.128.128 0 0 1-.014-.003l-.005-.002Z" class="fillPath" clip-rule="evenodd"/><path stroke="#3F0000" stroke-linecap="round" stroke-opacity=".5" d="M1 1h74M1 4h24" class="strokePath"/></svg>
