<svg xmlns="http://www.w3.org/2000/svg" width="77" height="18" fill="none" viewBox="0 0 77 18"><path stroke="#3F0000" stroke-linecap="round" stroke-opacity=".5" d="M43 14h32.5M1 17h75M1 14h32.5" class="strokePath"/><path fill="#3F0000" fill-opacity=".5" fill-rule="evenodd" d="M38.982 9.802c.024-.4.233-3.426 1.018-5.583C40.006 4.2 38.424.77 38.069.054c-.036-.072-.105-.072-.14 0C37.572.771 35.99 4.2 36 4.22c.802 2.351.985 5.094 1.017 5.562v.02c0 .026.013.045.028.045l.764 1.05c.101.139.28.139.38 0l.763-1.05c.015 0 .027-.019.03-.044Zm6.99-2.726c-.057.211-.172.343-.322.412-.23.102-.499.056-.76.011a4.09 4.09 0 0 0-.271-.04 2.558 2.558 0 0 0-.462-.012c-.123.005-.249.014-.395.025l-.06.004a.523.523 0 0 1-.071.002.979.979 0 0 1-.086.007c-.027 0-.054.003-.083.007l-.018.003-.038.004a2.175 2.175 0 0 0-.638.178c-.211.093-.44.229-.663.407a4.085 4.085 0 0 0-.622.64c-.187.244-.351.51-.491.77l-.04.08v.001c-.05.104-.1.206-.146.305l-.07.168c-.027.065-.053.128-.077.19l-.211.55c-.054.134-.1.212-.136.212-.04 0-.082-.078-.133-.22a2.022 2.022 0 0 1-.075-.263 8.296 8.296 0 0 1-.064-.352 5.036 5.036 0 0 1-.03-.343l-.006-.089a5.531 5.531 0 0 1 .19-1.64c.118-.398.29-.805.519-1.185.229-.379.519-.729.845-1.016a3.72 3.72 0 0 1 1.038-.653c.35-.142.68-.22.945-.232a2.538 2.538 0 0 1 1.472.335c.419.246.712.594.852.916.143.324.16.61.107.818Zm-15.619.412c-.153-.069-.268-.201-.325-.412-.054-.209-.036-.494.107-.818.143-.322.433-.67.852-.916.415-.25.952-.374 1.471-.335.265.011.594.09.945.232.35.143.712.365 1.038.653.325.287.615.637.844 1.016.233.38.401.787.52 1.185.11.4.168.789.19 1.141.006.176.006.344.003.5-.005.053-.01.106-.013.157a4.816 4.816 0 0 1-.027.274l-.011.07a6.653 6.653 0 0 1-.05.282c-.02.082-.042.155-.061.217l-.014.045c-.05.143-.096.221-.136.221-.032 0-.078-.078-.136-.213l-.03-.079c-.051-.135-.112-.294-.177-.47l-.058-.136c-.03-.071-.062-.145-.093-.222-.045-.1-.095-.201-.146-.305l-.04-.08a5.853 5.853 0 0 0-.49-.772 3.93 3.93 0 0 0-.623-.639 3.011 3.011 0 0 0-.662-.407 2.135 2.135 0 0 0-.638-.178l-.038-.004-.02-.003c-.027-.004-.053-.007-.077-.007a.78.78 0 0 1-.086-.007.508.508 0 0 1-.072-.002l-.08-.006c-.14-.01-.26-.018-.378-.023a2.556 2.556 0 0 0-.461.012c-.089.009-.18.024-.271.04-.261.045-.529.091-.756-.01ZM37 13.102 38.02 12l.98 1.102c-.184.28-.98 1.898-.98 1.898s-.836-1.617-1.02-1.898Z" class="fillPath" clip-rule="evenodd"/></svg>
