<svg width="77" height="18" viewBox="0 0 77 18" fill="none" xmlns="http://www.w3.org/2000/svg">
<path class="strokePath" d="M43 14H75.5" stroke="#3F0000" stroke-opacity="0.5" stroke-linecap="round"/>
<path class="strokePath" d="M1 17L76 17" stroke="#3F0000" stroke-opacity="0.5" stroke-linecap="round"/>
<path class="strokePath" d="M1 14H33.5" stroke="#3F0000" stroke-opacity="0.5" stroke-linecap="round"/>
<path class="fillPath" fill-rule="evenodd" clip-rule="evenodd" d="M38.9821 9.80174C39.006 9.4026 39.2149 6.37582 40 4.21877C40.006 4.20064 38.4239 0.771102 38.0686 0.0543796C38.0328 -0.0181265 37.9642 -0.0181265 37.9284 0.0543796C37.5731 0.771102 35.9911 4.20028 36 4.21877C36.8018 6.57004 36.9852 9.31262 37.0165 9.78059L37.0179 9.80174C37.0179 9.82712 37.0299 9.84562 37.0448 9.84562L37.8089 10.8959C37.9104 11.0347 38.0895 11.0347 38.1881 10.8959L38.9522 9.84562C38.9672 9.84562 38.9791 9.82712 38.9821 9.80174ZM45.9721 7.07558C45.9149 7.287 45.8003 7.41941 45.6499 7.48817C45.4192 7.59032 45.1511 7.54415 44.8894 7.49907C44.7978 7.48329 44.707 7.46765 44.6188 7.45855C44.4505 7.43623 44.2966 7.44063 44.157 7.44685C44.0339 7.45233 43.908 7.46122 43.7621 7.47152L43.762 7.47153L43.7619 7.47154L43.7023 7.47574C43.6772 7.47793 43.6557 7.47866 43.6307 7.47757C43.602 7.48122 43.5734 7.48415 43.5447 7.48525C43.5179 7.48464 43.491 7.48836 43.462 7.49237L43.4445 7.49476C43.4319 7.49657 43.4192 7.49765 43.4063 7.49875C43.3829 7.50074 43.359 7.50279 43.3335 7.5094C43.176 7.53245 42.9791 7.58256 42.7679 7.67693C42.5566 7.76984 42.3275 7.9059 42.1055 8.08403C41.8871 8.2618 41.6723 8.48127 41.4825 8.72305C41.2964 8.96848 41.1317 9.23367 40.992 9.49483L40.9527 9.57495L40.9527 9.57501L40.9526 9.57521C40.9016 9.67908 40.8515 9.78103 40.8059 9.87999C40.7831 9.93743 40.7595 9.99336 40.7366 10.0478L40.7366 10.0479L40.7366 10.0479L40.7365 10.048C40.7091 10.1131 40.6825 10.1762 40.6591 10.2374C40.5768 10.4499 40.5052 10.6368 40.4479 10.7875C40.3942 10.9225 40.3476 11.0004 40.3118 11C40.2725 11 40.2295 10.9225 40.1794 10.7791C40.1543 10.7077 40.1256 10.6196 40.1042 10.5168C40.0827 10.4137 40.0612 10.2962 40.0397 10.1646C40.0253 10.0588 40.0178 9.94449 40.0098 9.82215L40.0039 9.73331C39.9967 9.57785 40.0003 9.41033 40.0075 9.23403C40.0254 8.88178 40.0863 8.49335 40.1937 8.09319C40.3118 7.69522 40.4837 7.28811 40.7128 6.90843C40.942 6.52912 41.2319 6.17907 41.5577 5.8923C41.8835 5.60443 42.2452 5.3824 42.596 5.23902C42.9469 5.09673 43.2762 5.01846 43.5412 5.00712C44.0639 4.96798 44.5974 5.09161 45.0127 5.3418C45.4316 5.58797 45.7251 5.9362 45.8648 6.25772C46.008 6.58179 46.0259 6.86745 45.9721 7.07558ZM30.3535 7.48817C30.1996 7.41941 30.0851 7.287 30.0278 7.07558C29.9741 6.86745 29.9921 6.58179 30.1352 6.25772C30.2784 5.9362 30.5682 5.58797 30.987 5.3418C31.4022 5.09161 31.939 4.96798 32.458 5.00712C32.7229 5.01846 33.0521 5.09673 33.4028 5.23902C33.7536 5.3824 34.1151 5.60443 34.4408 5.8923C34.7665 6.17907 35.0564 6.52912 35.2854 6.90843C35.518 7.28811 35.6863 7.69522 35.8044 8.09319C35.9153 8.49335 35.9726 8.88178 35.9941 9.23403C36.0013 9.41033 36.0012 9.57785 35.9976 9.73331C35.9927 9.78734 35.9886 9.83993 35.9846 9.89102C35.9771 9.98763 35.97 10.0789 35.9583 10.1646L35.9469 10.2347C35.9302 10.3383 35.915 10.4324 35.8975 10.5168C35.8774 10.599 35.8551 10.6718 35.836 10.7342L35.8359 10.7342L35.8223 10.7791C35.7722 10.9225 35.7256 11 35.6863 11C35.654 11.0004 35.6075 10.9225 35.5503 10.7875L35.52 10.708L35.52 10.708C35.4686 10.5728 35.4081 10.4139 35.3427 10.2374C35.3245 10.1934 35.3051 10.1484 35.2853 10.1023L35.2853 10.1022L35.2853 10.1022C35.2546 10.0307 35.2228 9.9567 35.1924 9.87999C35.1467 9.78094 35.0966 9.67889 35.0456 9.57493L35.0063 9.49483C34.8667 9.23367 34.7021 8.96848 34.516 8.72305C34.3263 8.48127 34.1151 8.2618 33.8932 8.08403C33.6713 7.9059 33.4422 7.76984 33.231 7.67693C33.0199 7.58256 32.8266 7.53245 32.6656 7.5094C32.6401 7.50279 32.6162 7.50074 32.5928 7.49875C32.58 7.49765 32.5673 7.49657 32.5546 7.49476L32.5359 7.4922C32.5075 7.48825 32.4816 7.48464 32.458 7.48525C32.4258 7.48415 32.3972 7.48122 32.3721 7.47757C32.3471 7.47866 32.322 7.47793 32.3005 7.47574L32.2203 7.47018C32.0804 7.46045 31.9601 7.45209 31.8424 7.44685C31.7028 7.44063 31.5489 7.43623 31.3807 7.45855C31.2924 7.46767 31.2015 7.48335 31.1098 7.49915L31.1098 7.49915C30.8485 7.54421 30.5814 7.59025 30.3535 7.48817ZM37 13.1018L38.0203 12L39 13.1018C38.8159 13.3825 38.0203 15 38.0203 15C38.0203 15 37.1841 13.3825 37 13.1018Z" fill="#3F0000" fill-opacity="0.5"/>
</svg>
