<svg width="76" height="18" viewBox="0 0 76 18" fill="none" xmlns="http://www.w3.org/2000/svg">
<path class="strokePath" d="M51 4L75 4" stroke="#3F0000" stroke-opacity="0.5" stroke-linecap="round"/>
<path class="fillPath" fill-rule="evenodd" clip-rule="evenodd" d="M34.6427 8.85985L34.6617 8.85522C34.6579 8.85948 34.6534 8.86374 34.6489 8.86803L34.6489 8.86804C34.6439 8.87278 34.6388 8.87755 34.6346 8.8824L34.6427 8.85985ZM36.7135 5.01021C35.9961 3.97864 34.5856 3.24383 33.2677 3.04762C31.9198 2.84734 30.5556 3.30688 29.387 3.90093C28.4699 4.3671 27.6123 4.92004 26.755 5.47282C26.3294 5.74722 25.9038 6.02158 25.4711 6.28527C24.2346 7.03829 22.8759 7.73915 21.365 7.79676C21.1937 7.80328 21.0361 7.88887 21.0334 8.00654C20.9546 8.10845 21.0225 8.27475 21.1611 8.37123C22.1992 9.10251 23.6857 9.10116 24.9167 8.75577C26.1885 8.39896 26.8869 7.27852 27.5147 6.26923C27.5718 6.85785 27.7321 7.4288 28.2593 7.8223C28.4876 7.99377 29.2267 8.30249 28.7131 7.5193C28.175 6.69942 28.9359 5.6211 29.5746 4.91754C30.3382 4.07837 31.5964 3.69439 32.7405 3.55988C32.7731 3.55607 32.8002 3.54736 32.8247 3.53704C32.9388 3.5422 33.053 3.55063 33.1671 3.56422C35.3438 3.82809 36.7026 5.47002 36.9879 7.32418C37.2081 8.76908 36.9608 10.7879 35.4444 11.6594C34.7759 12.0431 33.9172 11.9703 33.216 11.757C33.1101 11.7249 33.0122 11.6863 32.9171 11.642C32.9389 11.538 32.8899 11.4698 32.7731 11.3613C32.4524 11.067 32.3682 10.5135 32.4877 10.0325C33.0774 10.2727 33.8927 10.1327 34.4851 9.87483C35.2786 9.5308 35.8357 8.64326 35.4498 8.01334C35.4335 7.96687 35.4145 7.92339 35.3846 7.88589C35.3683 7.80491 35.3058 7.73398 35.2216 7.69268C33.534 6.86519 31.8518 7.89512 31.4198 9.48623C30.9388 11.2629 32.5339 12.4527 34.371 12.4527C36.1102 12.4527 37.1075 10.9945 37.4581 9.62917C37.5696 9.19501 37.6313 8.73993 37.6412 8.28068C37.6515 8.73993 37.7133 9.19501 37.8249 9.62917C38.1754 10.9945 39.1728 12.4527 40.9093 12.4527C42.749 12.4527 44.3442 11.2629 43.8605 9.48623C43.4284 7.89512 41.7463 6.86519 40.0614 7.69268C39.9772 7.73398 39.9147 7.80491 39.8956 7.88589C39.8685 7.92339 39.8494 7.96687 39.8331 8.01334C39.4472 8.64326 40.0043 9.5308 40.7951 9.87483C41.3903 10.1327 42.2055 10.2727 42.7925 10.0325C42.9148 10.5135 42.8305 11.067 42.5099 11.3613C42.3903 11.4698 42.3441 11.538 42.3631 11.642C42.2707 11.6863 42.1729 11.7249 42.0669 11.757C41.3658 11.9703 40.5071 12.0431 39.8386 11.6594C38.3222 10.7879 38.0749 8.76908 38.295 7.32418C38.5776 5.47002 39.9391 3.82809 42.1159 3.56422C42.23 3.55063 42.3441 3.5422 42.4555 3.53704C42.4827 3.54736 42.5099 3.55607 42.5425 3.55988C43.6866 3.69439 44.9448 4.07837 45.7084 4.91754C46.347 5.6211 47.1079 6.69942 46.5699 7.5193C46.0535 8.30249 46.7954 7.99377 47.0237 7.8223C47.5509 7.4288 47.7085 6.85785 47.7683 6.26923C48.3933 7.27852 49.0944 8.39896 50.3662 8.75577C51.5945 9.10116 53.0837 9.10251 54.1218 8.37123C54.2604 8.27475 54.3257 8.10845 54.2496 8.00654C54.2441 7.88887 54.0892 7.80328 53.918 7.79676C52.4071 7.73915 51.0456 7.03829 49.8091 6.28527C49.3746 6.02049 48.9476 5.74494 48.5207 5.4694C47.6659 4.91776 46.8111 4.36614 45.8959 3.90093C44.7246 3.30688 43.3605 2.84734 42.0153 3.04762C40.6973 3.24383 39.2869 3.97864 38.5695 5.01021C37.9657 5.87738 37.6643 6.94678 37.6412 8.01133C37.6174 6.94678 37.3155 5.87738 36.7135 5.01021ZM36.7979 4.24574L37.6865 3.40332L38.5398 4.24574C38.3795 4.46043 37.6865 5.69717 37.6865 5.69717C37.6865 5.69717 36.9582 4.46043 36.7979 4.24574ZM36.4419 14.9905L37.6403 12.4531L38.836 14.9905L38.8279 15.0005C38.3414 15.656 37.6838 17.4398 37.6838 17.4398L37.6403 17.6004L37.5941 17.4398C37.5941 17.4398 36.9392 15.656 36.4501 15.0005L36.4419 14.9905ZM40.6214 8.85537C40.6295 8.86429 40.6376 8.87322 40.6484 8.8824L40.6402 8.85985C40.6345 8.85889 40.6301 8.85766 40.6261 8.85654C40.6244 8.85607 40.6228 8.85562 40.6212 8.85522L40.6214 8.85537Z" fill="#3F0000" fill-opacity="0.5"/>
<path class="strokePath" d="M1 1L75 0.999994" stroke="#3F0000" stroke-opacity="0.5" stroke-linecap="round"/>
<path class="strokePath" d="M1 4L25 4" stroke="#3F0000" stroke-opacity="0.5" stroke-linecap="round"/>
</svg>
